<svg width="32" height="32" viewBox="0 0 32 32" fill="none" xmlns="http://www.w3.org/2000/svg">
<g id="Master / Icons">
<path id="Vector" d="M13 6.5V7H13.5H18.5H19V6.5V6C19 5.20435 18.6839 4.44129 18.1213 3.87868C17.5587 3.31607 16.7956 3 16 3C15.2044 3 14.4413 3.31607 13.8787 3.87868C13.3161 4.44129 13 5.20435 13 6V6.5ZM11.5 7H12V6.5V6C12 4.93913 12.4214 3.92172 13.1716 3.17157C13.9217 2.42143 14.9391 2 16 2C17.0609 2 18.0783 2.42143 18.8284 3.17157C19.5786 3.92172 20 4.93913 20 6V6.5V7H20.5H28C28.1326 7 28.2598 7.05268 28.3536 7.14645C28.4473 7.24021 28.5 7.36739 28.5 7.5C28.5 7.63261 28.4473 7.75979 28.3536 7.85355C28.2598 7.94732 28.1326 8 28 8H26.492H26.0458L25.9952 8.44327L24.1032 25.0112C23.9777 26.1094 23.4523 27.1229 22.6274 27.8586C21.8024 28.5942 20.7356 29.0005 19.6302 29H19.63H12.37H12.3698C11.2644 29.0005 10.1976 28.5942 9.37263 27.8586C8.54769 27.1229 8.02235 26.1094 7.89677 25.0113C7.89677 25.0112 7.89677 25.0112 7.89676 25.0112L6.00477 8.44327L5.95415 8H5.508H4C3.86739 8 3.74021 7.94732 3.64645 7.85355C3.55268 7.75979 3.5 7.63261 3.5 7.5C3.5 7.36739 3.55268 7.24021 3.64645 7.14645C3.74021 7.05268 3.86739 7 4 7H11.5ZM12.3679 28H12.368H19.631H19.6311C20.4905 27.9998 21.3199 27.6834 21.961 27.1111C22.6022 26.5388 23.0103 25.7507 23.1078 24.8968C23.1078 24.8968 23.1078 24.8967 23.1078 24.8967L24.9768 8.55682L25.0405 8H24.48H7.521H6.96062L7.02423 8.55676L8.89122 24.8967C8.89122 24.8967 8.89123 24.8967 8.89123 24.8968C8.98865 25.7506 9.39682 26.5388 10.038 27.1111C10.6791 27.6834 11.5085 27.9998 12.3679 28ZM13 12.5C13.1326 12.5 13.2598 12.5527 13.3536 12.6464C13.4473 12.7402 13.5 12.8674 13.5 13V23C13.5 23.1326 13.4473 23.2598 13.3536 23.3536C13.2598 23.4473 13.1326 23.5 13 23.5C12.8674 23.5 12.7402 23.4473 12.6464 23.3536C12.5527 23.2598 12.5 23.1326 12.5 23V13C12.5 12.8674 12.5527 12.7402 12.6464 12.6464C12.7402 12.5527 12.8674 12.5 13 12.5ZM19.3536 12.6464C19.4473 12.7402 19.5 12.8674 19.5 13V23C19.5 23.1326 19.4473 23.2598 19.3536 23.3536C19.2598 23.4473 19.1326 23.5 19 23.5C18.8674 23.5 18.7402 23.4473 18.6464 23.3536C18.5527 23.2598 18.5 23.1326 18.5 23V13C18.5 12.8674 18.5527 12.7402 18.6464 12.6464C18.7402 12.5527 18.8674 12.5 19 12.5C19.1326 12.5 19.2598 12.5527 19.3536 12.6464Z" fill="#5E5E75" stroke="#5E5E75"/>
</g>
</svg>
