<svg width="32" height="32" viewBox="0 0 32 32" fill="none" xmlns="http://www.w3.org/2000/svg">
<g id="Master / Icons">
<path id="Vector" d="M5.56488 10.3758L5.56484 10.376C5.46748 10.8849 5.55019 11.4125 5.79913 11.8665C6.04813 12.3207 6.44804 12.6729 6.92987 12.8598L6.93038 12.86L7.57093 13.1076L5.56488 10.3758ZM5.56488 10.3758L6.11255 7.51963L6.11255 7.51961C6.21649 6.97766 6.4717 6.47643 6.84884 6.07549C7.22604 5.67449 7.70948 5.39057 8.24236 5.25822L8.24243 5.2582L18.5574 2.69782C19.8122 2.38633 21.1375 2.58925 22.2445 3.26153C23.3512 3.93367 24.1494 5.01992 24.4676 6.28261L24.4676 6.28271L26.3811 13.8817L26.3811 13.8818C26.4885 14.3085 26.4981 14.7544 26.4093 15.1854C26.3205 15.6165 26.1355 16.0218 25.868 16.3702C25.6005 16.7186 25.2575 17.0011 24.8649 17.1956C24.4722 17.3901 24.0405 17.4914 23.6028 17.4914M5.56488 10.3758L23.6028 17.4914M17.6813 26.7386C17.6129 26.4671 17.5412 26.1964 17.4663 25.9267L17.6813 26.7386ZM17.6813 26.7386C17.9382 27.7271 18.064 27.9448 18.0802 27.9448C19.2539 27.9448 20.118 26.5976 20.118 24.2494C20.118 23.0391 19.6772 21.0524 18.7874 18.3414M17.6813 26.7386L12.1726 16.9063M12.1726 16.9063L12.1726 16.9064L16.0495 23.0485L16.0502 23.0496C16.1452 23.1992 16.2191 23.3656 16.2686 23.5398L16.2691 23.5415C16.6096 24.725 16.8471 25.5654 16.9845 26.0604L16.9845 26.0606C17.0584 26.3264 17.129 26.5931 17.1964 26.8606L17.1973 26.8644C17.3281 27.3673 17.4284 27.6861 17.5018 27.8853C17.5382 27.9839 17.5709 28.0614 17.6007 28.1206C17.6148 28.1486 17.6341 28.1842 17.6587 28.2194C17.6699 28.2354 17.6925 28.2666 17.7261 28.2995C17.7426 28.3156 17.7733 28.3437 17.8172 28.3706C17.854 28.3932 17.9479 28.4448 18.0802 28.4448C18.8902 28.4448 19.5452 27.9698 19.9726 27.2271C20.3937 26.4953 20.618 25.4759 20.618 24.2494C20.618 22.9523 20.1532 20.8993 19.2625 18.1857M12.1726 16.9063C11.079 15.1733 9.46588 13.8424 7.57135 13.1078L12.1726 16.9063ZM19.2625 18.1857C19.2625 18.1856 19.2625 18.1855 19.2625 18.1854L18.7874 18.3414M19.2625 18.1857C19.2626 18.1857 19.2626 18.1857 19.2626 18.1858L18.7874 18.3414M19.2625 18.1857C19.2364 18.1058 19.2294 18.0207 19.242 17.9374C19.2546 17.854 19.2866 17.7753 19.3347 17.7077C19.3829 17.6401 19.4458 17.5856 19.5178 17.5482C19.5898 17.5108 19.6692 17.4914 19.7495 17.4914M18.7874 18.3414C18.7369 18.1872 18.7233 18.023 18.7476 17.8624C18.772 17.7018 18.8336 17.5494 18.9275 17.4176C19.0213 17.2858 19.1447 17.1785 19.2875 17.1044C19.4303 17.0303 19.5884 16.9915 19.7489 16.9914M19.7495 17.4914H19.7489V16.9914M19.7495 17.4914L19.7489 16.9914M19.7495 17.4914H23.6027L23.6028 16.9914M19.7489 16.9914H23.6028M23.6028 16.9914V17.4914M23.6028 16.9914C23.9633 16.9914 24.3191 16.908 24.6429 16.7476C24.9668 16.5872 25.2502 16.3539 25.4714 16.0657C25.6927 15.7775 25.846 15.4419 25.9196 15.0845C25.9932 14.7272 25.9852 14.3575 25.8962 14.0038L23.6028 17.4914M15.998 26.3484L15.9981 26.349C16.0523 26.5445 16.1034 26.7403 16.2046 27.1367C16.4541 28.0961 16.6772 28.684 16.9585 29.0371C17.2004 29.3409 17.5089 29.5 18.0815 29.5C19.162 29.5 20.0315 28.9942 20.6494 28.0953C21.2773 27.1818 21.6478 25.8519 21.6478 24.2494C21.6478 23.0796 21.3284 21.4123 20.6614 19.1888L20.4683 18.5451H21.1403H23.6041H23.6043C24.1967 18.5453 24.7816 18.4083 25.3144 18.1445C25.8471 17.8806 26.3139 17.4967 26.6786 17.0215C27.0433 16.5463 27.2963 15.9926 27.4178 15.4025C27.5393 14.8124 27.526 14.202 27.3789 13.6179L27.8637 13.4958L27.3789 13.6179L25.4654 6.01892C25.0789 4.48396 24.1099 3.16743 22.7715 2.35424C21.4332 1.54119 19.833 1.29638 18.3182 1.67211L8.00329 4.23248L8.00325 4.23248C7.28133 4.41162 6.62439 4.79667 6.11058 5.34295C5.59675 5.88927 5.24767 6.57393 5.10553 7.31614C5.10552 7.31617 5.10552 7.3162 5.10551 7.31623L4.55922 10.1723L4.55918 10.1724C4.41439 10.9278 4.5373 11.7105 4.90564 12.3825C5.27391 13.0544 5.86344 13.5719 6.56938 13.8457L7.20885 14.0934L7.2089 14.0935C8.90012 14.7489 10.3379 15.936 11.3117 17.4789L11.3118 17.479L15.1853 23.6201C15.2281 23.6872 15.2611 23.76 15.2835 23.8362L15.2843 23.839C15.6224 25.0167 15.8608 25.8562 15.998 26.3484Z" fill="#5E5E75" stroke="#5E5E75"/>
</g>
</svg>
