<svg width="25" height="24" viewBox="0 0 25 24" fill="none" xmlns="http://www.w3.org/2000/svg">
<g id="menu_open">
<mask id="mask0_0_148" style="mask-type:alpha" maskUnits="userSpaceOnUse" x="0" y="0" width="25" height="24">
<rect id="Bounding box" x="0.75" width="24" height="24" fill="#D9D9D9"/>
</mask>
<g mask="url(#mask0_0_148)">
<path id="menu_open_2" d="M4.15 18C3.92909 18 3.75 17.8209 3.75 17.6V16.4C3.75 16.1791 3.92909 16 4.15 16H16.35C16.5709 16 16.75 16.1791 16.75 16.4V17.6C16.75 17.8209 16.5709 18 16.35 18H4.15ZM4.15 13C3.92909 13 3.75 12.8209 3.75 12.6V11.4C3.75 11.1791 3.92909 11 4.15 11H13.35C13.5709 11 13.75 11.1791 13.75 11.4V12.6C13.75 12.8209 13.5709 13 13.35 13H4.15ZM4.15 8C3.92909 8 3.75 7.82091 3.75 7.6V6.4C3.75 6.17909 3.92909 6 4.15 6H16.35C16.5709 6 16.75 6.17909 16.75 6.4V7.6C16.75 7.82091 16.5709 8 16.35 8H4.15Z" fill="#F3F3F3"/>
</g>
</g>
</svg>
