<svg width="45" height="44" viewBox="0 0 45 44" fill="none" xmlns="http://www.w3.org/2000/svg">
<path id="Vector" d="M35.8877 39.6H40.3321V44H22.5456C10.2663 44 0.3125 34.1506 0.3125 22C0.3125 9.8494 10.2663 0 22.5456 0C34.825 0 44.7787 9.8494 44.7787 22C44.7816 25.4157 43.9794 28.7849 42.436 31.8401C40.8926 34.8953 38.6505 37.5523 35.8877 39.6ZM22.5456 17.6C23.7249 17.6 24.8559 17.1364 25.6898 16.3113C26.5237 15.4861 26.9922 14.367 26.9922 13.2C26.9922 12.033 26.5237 10.9139 25.6898 10.0887C24.8559 9.26357 23.7249 8.8 22.5456 8.8C21.3663 8.8 20.2353 9.26357 19.4014 10.0887C18.5675 10.9139 18.099 12.033 18.099 13.2C18.099 14.367 18.5675 15.4861 19.4014 16.3113C20.2353 17.1364 21.3663 17.6 22.5456 17.6ZM13.6524 26.4C14.8317 26.4 15.9627 25.9364 16.7966 25.1113C17.6305 24.2861 18.099 23.167 18.099 22C18.099 20.833 17.6305 19.7139 16.7966 18.8887C15.9627 18.0636 14.8317 17.6 13.6524 17.6C12.473 17.6 11.342 18.0636 10.5081 18.8887C9.67422 19.7139 9.20574 20.833 9.20574 22C9.20574 23.167 9.67422 24.2861 10.5081 25.1113C11.342 25.9364 12.473 26.4 13.6524 26.4ZM31.4389 26.4C32.6182 26.4 33.7492 25.9364 34.5831 25.1113C35.417 24.2861 35.8855 23.167 35.8855 22C35.8855 20.833 35.417 19.7139 34.5831 18.8887C33.7492 18.0636 32.6182 17.6 31.4389 17.6C30.2595 17.6 29.1285 18.0636 28.2946 18.8887C27.4607 19.7139 26.9922 20.833 26.9922 22C26.9922 23.167 27.4607 24.2861 28.2946 25.1113C29.1285 25.9364 30.2595 26.4 31.4389 26.4ZM22.5456 35.2C23.7249 35.2 24.8559 34.7364 25.6898 33.9113C26.5237 33.0861 26.9922 31.967 26.9922 30.8C26.9922 29.633 26.5237 28.5139 25.6898 27.6887C24.8559 26.8636 23.7249 26.4 22.5456 26.4C21.3663 26.4 20.2353 26.8636 19.4014 27.6887C18.5675 28.5139 18.099 29.633 18.099 30.8C18.099 31.967 18.5675 33.0861 19.4014 33.9113C20.2353 34.7364 21.3663 35.2 22.5456 35.2Z" fill="#F85146"/>
</svg>
